#N canvas 629 446 568 423 10;
#X obj 134 48 inlet~;
#X obj 148 74 inlet~;
#X msg 256 105 2000;
#X msg 300 105 100;
#X obj 258 66 loadbang;
#X obj 135 301 outlet~;
#X obj 160 280 outlet~;
#X obj 55 217 /;
#X floatatom 55 248 5 0 0 0 - - -, f 5;
#X obj 55 167 t b i;
#X msg 55 192 2;
#X obj 55 56 inlet;
#X obj 134 225 *~;
#X obj 186 231 *~;
#X obj 135 175 rev3nk;
#X obj 55 96 + 15;
#X obj 55 132 / 4;
#X msg 194 105 75;
#X msg 218 105 74;
#X connect 0 0 14 0;
#X connect 1 0 14 1;
#X connect 2 0 14 4;
#X connect 3 0 14 5;
#X connect 4 0 18 0;
#X connect 4 0 2 0;
#X connect 4 0 3 0;
#X connect 4 0 17 0;
#X connect 7 0 8 0;
#X connect 8 0 12 1;
#X connect 8 0 13 1;
#X connect 9 0 10 0;
#X connect 9 1 7 1;
#X connect 10 0 7 0;
#X connect 11 0 15 0;
#X connect 12 0 5 0;
#X connect 13 0 6 0;
#X connect 14 0 12 0;
#X connect 14 1 13 0;
#X connect 15 0 16 0;
#X connect 16 0 9 0;
#X connect 17 0 14 2;
#X connect 18 0 14 3;
