#N canvas 0 50 450 300 10;
#X obj 123 58 cnv 15 240 140 empty empty Distance 20 12 0 14 -233017
-66577 0;
#X obj -97 -45 tgl 15 0 empty empty empty 17 7 0 10 -262144 -1 -1 0
1;
#X obj -97 -64 inlet onOff;
#X obj -185 0 cnv 15 150 170 empty empty read_sound_file 20 12 0 14
-233017 -66577 0;
#X obj -182 126 readsf~;
#X obj -182 46 symbol \$1;
#X symbolatom -182 68 10 0 0 0 - - -, f 10;
#X obj 123 0 cnv 15 240 50 empty empty process_sound 20 12 0 14 -232576
-66577 0;
#X obj 137 92 r~ \$0-sound;
#X obj 371 58 cnv 15 220 250 empty empty output_sound 20 12 0 14 -233017
-66577 0;
#X obj 390 136 r~ \$0-binauralsoundL;
#X obj -182 24 loadbang;
#X msg -182 86 open \$1 \, 1;
#X obj -122 127 bng 15 250 50 0 empty empty loop 17 7 0 10 -262144
-1 -1;
#X msg -108 86 stop;
#X obj -182 148 s~ \$0-sound;
#X obj -17 -64 inlet distance;
#X obj -17 -42 s \$0-distance;
#X obj 283 -64 inlet azimuth;
#X obj 283 -42 s \$0-azimuth;
#X obj 246 92 r \$0-distance;
#X obj 371 314 cnv 15 220 250 empty empty Room_model 20 12 0 14 -233017
-66577 0;
#X obj 123 205 cnv 15 240 350 empty empty Cosine_panner 20 12 0 14
-233017 -66577 0;
#X obj 513 -64 inlet elevation;
#X obj 513 -42 s \$0-elevation;
#X obj 285 123 r \$0-azimuth;
#X text 370 -51 -pi to pi;
#X text 77 -53 1 to 150 metres;
#X obj 381 168 outlet~;
#X obj 382 255 outlet~;
#X obj 392 222 r~ \$0-binauralsoundR;
#X obj 135 482 s~ \$0-binauralsoundL;
#X obj 206 463 s~ \$0-binauralsoundR;
#X obj -97 -28 switch~;
#X obj 382 397 externalization;
#X obj 138 142 distance;
#X obj 382 201 r~ \$0-roommodelsoundR;
#X obj 382 498 s~ \$0-roommodelsoundL;
#X obj 428 450 s~ \$0-roommodelsoundR;
#X obj 380 115 r~ \$0-roommodelsoundL;
#X obj 137 166 s~ \$0-soundDis;
#X obj 381 359 r~ \$0-soundDis;
#X obj 136 244 r~ \$0-soundDis;
#X obj 246 147 rSound;
#X obj 135 450 *~;
#X obj 246 284 sig~;
#X obj 246 372 cos~;
#X obj 246 350 -~ 0.25;
#X obj 246 328 *~ 0.25;
#X obj 246 306 lop~ 1;
#X obj 154 420 cos~;
#X obj 153 395 -~ 0.25;
#X obj 229 398 *~;
#X floatatom 246 263 5 0 0 0 - - -, f 5;
#X obj 246 239 abs;
#X obj 246 178 + 1.57;
#X obj 246 217 / 3.14;
#X connect 1 0 33 0;
#X connect 2 0 1 0;
#X connect 4 0 15 0;
#X connect 4 1 13 0;
#X connect 5 0 6 0;
#X connect 6 0 12 0;
#X connect 8 0 35 0;
#X connect 10 0 28 0;
#X connect 11 0 5 0;
#X connect 12 0 4 0;
#X connect 13 0 5 0;
#X connect 14 0 4 0;
#X connect 16 0 17 0;
#X connect 18 0 19 0;
#X connect 20 0 43 0;
#X connect 20 0 35 1;
#X connect 23 0 24 0;
#X connect 25 0 43 1;
#X connect 30 0 29 0;
#X connect 34 0 37 0;
#X connect 34 1 38 0;
#X connect 35 0 40 0;
#X connect 36 0 29 0;
#X connect 39 0 28 0;
#X connect 41 0 34 0;
#X connect 41 0 34 1;
#X connect 42 0 44 0;
#X connect 42 0 52 0;
#X connect 43 0 55 0;
#X connect 44 0 31 0;
#X connect 45 0 49 0;
#X connect 46 0 52 1;
#X connect 47 0 46 0;
#X connect 47 0 51 0;
#X connect 48 0 47 0;
#X connect 49 0 48 0;
#X connect 50 0 44 1;
#X connect 51 0 50 0;
#X connect 52 0 32 0;
#X connect 53 0 45 0;
#X connect 54 0 53 0;
#X connect 55 0 56 0;
#X connect 56 0 54 0;
