#N canvas -8 -8 1366 685 10;
#X obj 116 609 dac~;
#X obj 62 501 cnv 15 250 80 empty empty Pinna_model 20 12 0 14 -233017
-66577 0;
#X obj -191 283 cnv 15 220 300 empty empty Room_model 20 12 0 14 -233017
-66577 0;
#X obj 63 283 cnv 15 245 200 empty empty Head_model 20 12 0 14 -233017
-66577 0;
#X obj -190 -36 cnv 15 500 300 empty empty Sound 20 12 0 14 -233017
-66577 0;
#X obj 84 397 ITDwithTheta;
#X obj -172 12 openpanel;
#X msg -170 88 open \$1 \, 1;
#X symbolatom -170 54 10 0 0 0 - - -, f 10;
#X obj -103 118 bng 15 250 50 0 empty empty Loop 17 7 0 10 -262144
-1 -1;
#X obj -59 301 env~;
#X floatatom -59 326 5 0 0 0 - - -, f 5;
#X obj -59 383 dbtorms;
#X obj -162 417 env~;
#X floatatom -162 442 5 0 0 0 - - -, f 5;
#X obj -162 388 *~;
#X obj -162 354 vd~ del_line;
#X obj -59 457 line~;
#X obj -172 -13 bng 15 250 50 0 empty empty empty 17 7 0 10 -262144
-1 -1;
#X msg -65 79 stop;
#X obj -170 123 readsf~;
#X text -164 306 delay 15ms;
#X obj 84 357 clip~ -1 1;
#X obj 165 363 clip~ -1 1;
#X floatatom -139 512 5 0 0 0 - - -, f 5;
#X obj -141 487 env~;
#X obj 321 257 vsl 15 128 0 3.1415 0 0 empty empty empty 0 -9 0 10
-262144 -1 -1 0 1;
#X msg -59 432 \$1 50;
#X obj 182 554 clip~ -1 1;
#X obj 90 553 clip~ -1 1;
#X obj 181 522 pinnaDelays;
#X obj 90 521 pinnaDelays;
#X obj 63 173 distance;
#X obj 119 140 hsl 128 15 0 70 0 0 empty empty empty -2 -8 0 10 -262144
-1 -1 0 1;
#X obj -59 406 clip 0 1;
#X obj -169 191 delwrite~ del_line 1000;
#X obj -59 358 - 3;
#X text -57 340 -3dB;
#X obj 330 16 cnv 15 250 60 empty empty empty 20 12 0 14 -128992 -66577
0;
#X obj 389 41 hsl 128 15 -3.1415 3.1415 0 0 theta empty Azimuth(-90___90)
-2 -8 0 10 -262144 -1 -1 0 1;
#X obj 166 325 r theta;
#X obj -163 327 sig~ 40;
#X connect 5 0 31 0;
#X connect 5 1 30 0;
#X connect 6 0 8 0;
#X connect 7 0 20 0;
#X connect 8 0 7 0;
#X connect 9 0 8 0;
#X connect 10 0 11 0;
#X connect 11 0 36 0;
#X connect 12 0 34 0;
#X connect 13 0 14 0;
#X connect 15 0 13 0;
#X connect 15 0 0 0;
#X connect 15 0 0 1;
#X connect 16 0 15 0;
#X connect 16 0 25 0;
#X connect 17 0 15 1;
#X connect 18 0 6 0;
#X connect 19 0 20 0;
#X connect 20 0 32 0;
#X connect 20 1 9 0;
#X connect 22 0 5 0;
#X connect 23 0 5 1;
#X connect 25 0 24 0;
#X connect 26 0 30 2;
#X connect 26 0 31 2;
#X connect 27 0 17 0;
#X connect 28 0 0 1;
#X connect 29 0 0 0;
#X connect 30 0 28 0;
#X connect 31 0 29 0;
#X connect 32 0 22 0;
#X connect 32 0 23 0;
#X connect 32 0 10 0;
#X connect 32 0 35 0;
#X connect 33 0 32 1;
#X connect 34 0 27 0;
#X connect 36 0 12 0;
#X connect 40 0 5 2;
#X connect 40 0 30 1;
#X connect 41 0 16 0;
