#N canvas 306 75 974 583 10;
#X msg 161 17 0 100;
#X obj 225 84 hsl 250 15 1 150 0 0 empty empty empty -2 -8 0 10 -262144
-1 -1 2000 1;
#X floatatom 233 104 5 0 0 0 - - -, f 5;
#X floatatom 186 83 5 0 0 0 - - -, f 5;
#X msg 186 60 1;
#X obj 186 149 /;
#X floatatom 186 175 5 0 0 0 - - -, f 5;
#X obj 172 130 bng 15 250 50 0 empty empty empty 17 7 0 10 -262144
-1 -1;
#X floatatom 161 276 5 0 0 0 - - -, f 5;
#X floatatom 198 277 5 0 0 0 - - -, f 5;
#N canvas 34 317 450 300 rmstodb 0;
#X obj 59 82 rmstodb~;
#X obj 59 104 snapshot~;
#X obj 22 83 bang~;
#X obj 58 23 inlet~;
#X obj 58 146 outlet;
#X connect 0 0 1 0;
#X connect 1 0 4 0;
#X connect 2 0 1 0;
#X connect 3 0 0 0;
#X restore 221 255 pd rmstodb;
#X obj 186 37 loadbang;
#X obj 161 226 line~;
#X obj 161 205 \$1 50;
#X obj 43 255 *~;
#N canvas 0 50 450 300 atodb 0;
#X obj 24 50 clip 0.001 1;
#X obj 24 74 log 10;
#X obj 24 21 snapshot~;
#X obj 24 129 outlet;
#X obj 24 -14 inlet~;
#X obj 161 22 tgl 15 0 empty empty empty 17 7 0 10 -262144 -1 -1 1
1;
#X obj 230 5 loadbang;
#X msg 230 32 1;
#X obj 161 55 metro 20;
#X obj 24 98 * 10;
#X connect 0 0 1 0;
#X connect 1 0 9 0;
#X connect 2 0 0 0;
#X connect 4 0 2 0;
#X connect 5 0 8 0;
#X connect 6 0 7 0;
#X connect 7 0 5 0;
#X connect 8 0 2 0;
#X connect 9 0 3 0;
#X restore 161 254 pd atodb;
#X text 495 17 Sound Pressure in the Free Field P = k/r P > sound pressure
k > a costant r > distance Reference: Alton Everest p 33-38;
#X obj 41 46 inlet~;
#X obj 43 297 outlet~;
#X obj 304 45 inlet;
#X msg 221 63 2;
#X obj 42 204 lop~;
#X floatatom 86 190 15 0 0 0 - - -, f 15;
#X obj 88 108 t b f;
#X obj 88 158 /;
#X msg 88 133 10000;
#X connect 0 0 13 0;
#X connect 1 0 2 0;
#X connect 1 0 5 1;
#X connect 1 0 7 0;
#X connect 1 0 23 0;
#X connect 3 0 5 0;
#X connect 4 0 3 0;
#X connect 5 0 6 0;
#X connect 5 0 13 0;
#X connect 7 0 5 0;
#X connect 10 0 9 0;
#X connect 11 0 4 0;
#X connect 11 0 20 0;
#X connect 12 0 10 0;
#X connect 12 0 14 1;
#X connect 12 0 15 0;
#X connect 13 0 12 0;
#X connect 14 0 18 0;
#X connect 15 0 8 0;
#X connect 17 0 21 0;
#X connect 19 0 1 0;
#X connect 20 0 1 0;
#X connect 21 0 14 0;
#X connect 22 0 21 1;
#X connect 23 0 25 0;
#X connect 23 1 24 1;
#X connect 24 0 22 0;
#X connect 25 0 24 0;
