#N canvas 132 50 1011 550 10;
#X obj -191 283 cnv 15 220 200 empty empty Room_model 20 12 0 14 -233017
-66577 0;
#X obj 63 283 cnv 15 245 200 empty empty Head_model 20 12 0 14 -233017
-66577 0;
#X obj -190 -36 cnv 15 500 300 empty empty Sound 20 12 0 14 -233017
-66577 0;
#X obj 90 457 ITDwithTheta;
#X obj 169 321 hsl 128 15 -1.5707 1.5707 0 0 empty empty Azimuth(-90___90)
-2 -8 0 10 -262144 -1 -1 0 1;
#X obj 244 457 hsl 20 15 -90 90 0 0 empty empty empty -2 -8 0 10 -262144
-1 -1 0 1;
#X obj 241 409 / 1.5707;
#X floatatom 249 438 5 0 0 0 - - -, f 5;
#X obj 242 388 * 90;
#X obj -59 301 env~;
#X floatatom -59 326 5 0 0 0 - - -, f 5;
#X obj -169 191 delwrite~ del_line 15;
#X obj -59 381 dbtorms;
#X obj -59 358 expr $f1 -15;
#X obj -162 417 env~;
#X floatatom -162 442 5 0 0 0 - - -, f 5;
#X obj -162 388 *~;
#X obj -162 354 vd~ del_line;
#X obj -59 407 max 0;
#X obj -59 457 line~;
#X text -57 340 -15dB;
#X text -164 306 delay 15ms;
#X obj 7 602 dac~;
#X obj 71 379 clip~ -1 1;
#X obj 152 380 clip~ -1 1;
#X floatatom -139 512 5 0 0 0 - - -, f 5;
#X obj -141 487 env~;
#X msg -59 432 \$1 50;
#X obj 102 554 clip~ -1 1;
#X obj 16 551 clip~ -1 1;
#X obj 103 518 pinnaDelays;
#X obj -3 518 pinnaDelays;
#X obj -163 327 sig~ 15;
#X obj -170 123 noise~;
#X obj 321 257 vsl 15 128 0 3.1415 0 0 empty empty empty 0 -9 0 10
-262144 -1 -1 0 1;
#X connect 3 0 31 0;
#X connect 3 1 30 0;
#X connect 4 0 8 0;
#X connect 4 0 30 1;
#X connect 4 0 31 1;
#X connect 5 0 3 2;
#X connect 6 0 7 0;
#X connect 6 0 5 0;
#X connect 8 0 6 0;
#X connect 9 0 10 0;
#X connect 10 0 13 0;
#X connect 12 0 18 0;
#X connect 13 0 12 0;
#X connect 14 0 15 0;
#X connect 16 0 14 0;
#X connect 16 0 22 0;
#X connect 16 0 22 1;
#X connect 17 0 16 0;
#X connect 17 0 26 0;
#X connect 18 0 27 0;
#X connect 19 0 16 1;
#X connect 23 0 3 0;
#X connect 24 0 3 1;
#X connect 26 0 25 0;
#X connect 27 0 19 0;
#X connect 28 0 22 1;
#X connect 29 0 22 0;
#X connect 30 0 28 0;
#X connect 31 0 29 0;
#X connect 32 0 17 0;
#X connect 33 0 11 0;
#X connect 33 0 23 0;
#X connect 33 0 24 0;
#X connect 33 0 9 0;
#X connect 34 0 30 2;
#X connect 34 0 31 2;
