#N canvas 595 134 568 423 10;
#X obj 132 48 inlet~;
#X msg 256 105 2000;
#X msg 300 105 100;
#X obj 258 66 loadbang;
#X obj 133 301 outlet~;
#X obj 171 276 outlet~;
#X obj 55 217 /;
#X floatatom 55 248 5 0 0 0 - - -;
#X obj 55 167 t b i;
#X msg 55 192 2;
#X obj 55 56 inlet;
#X obj 132 225 *~;
#X obj 171 227 *~;
#X obj 55 96 + 15;
#X obj 55 132 / 4;
#X floatatom 32 40 5 0 0 0 - - -;
#X msg 194 105 80;
#X msg 218 105 62;
#X obj 131 179 rev2nk1~ 80 62 2000 100;
#X connect 0 0 18 0;
#X connect 1 0 18 3;
#X connect 2 0 18 4;
#X connect 3 0 16 0;
#X connect 3 0 17 0;
#X connect 3 0 1 0;
#X connect 3 0 2 0;
#X connect 6 0 7 0;
#X connect 7 0 11 1;
#X connect 7 0 12 1;
#X connect 8 0 9 0;
#X connect 8 1 6 1;
#X connect 9 0 6 0;
#X connect 10 0 13 0;
#X connect 11 0 4 0;
#X connect 12 0 5 0;
#X connect 13 0 14 0;
#X connect 14 0 8 0;
#X connect 15 0 13 0;
#X connect 16 0 18 1;
#X connect 17 0 18 2;
#X connect 18 0 11 0;
#X connect 18 1 12 0;
