#N canvas 0 50 592 423 10;
#X obj 136 18 inlet~;
#X obj 147 56 inlet~;
#X msg 194 105 86;
#X msg 218 105 58;
#X msg 256 105 2000;
#X msg 300 105 100;
#X obj 258 66 loadbang;
#X obj 16 -57 inlet;
#X obj 15 9 / 50;
#X obj 347 149 hsl 128 15 0 1 0 0 empty empty empty -2 -8 0 10 -262144
-1 -1 0 1;
#X obj 344 169 - 1;
#X obj 344 191 abs;
#X obj 344 213 *;
#X floatatom 344 235 5 0 0 0 - - -, f 5;
#X obj 344 61 - 1;
#X obj 344 83 abs;
#X obj 73 -54 hsl 128 15 0 50 0 0 empty empty empty -2 -8 0 10 -262144
-1 -1 0 1;
#X obj 136 271 outlet~;
#X obj 161 234 outlet~;
#X floatatom 342 290 5 0 0 0 - - -, f 5;
#X obj 342 263 + 35;
#X obj 135 175 rev3AA~, f 12;
#X connect 0 0 21 0;
#X connect 1 0 21 1;
#X connect 2 0 21 2;
#X connect 3 0 12 1;
#X connect 3 0 21 3;
#X connect 4 0 21 4;
#X connect 5 0 21 5;
#X connect 6 0 2 0;
#X connect 6 0 3 0;
#X connect 6 0 4 0;
#X connect 6 0 5 0;
#X connect 7 0 8 0;
#X connect 8 0 14 0;
#X connect 9 0 10 0;
#X connect 9 0 21 6;
#X connect 10 0 11 0;
#X connect 11 0 12 0;
#X connect 12 0 13 0;
#X connect 12 0 20 0;
#X connect 14 0 15 0;
#X connect 15 0 9 0;
#X connect 16 0 8 0;
#X connect 20 0 19 0;
#X connect 20 0 21 3;
#X connect 21 0 17 0;
#X connect 21 1 18 0;
