#N canvas 0 50 568 423 10;
#X obj 134 48 inlet~;
#X obj 148 74 inlet~;
#X msg 194 105 86;
#X msg 218 105 58;
#X msg 256 105 2000;
#X msg 300 105 100;
#X obj 135 175 rev3~, f 12;
#X obj 258 66 loadbang;
#X obj 136 280 outlet~;
#X obj 162 238 outlet~;
#X connect 0 0 6 0;
#X connect 1 0 6 1;
#X connect 2 0 6 2;
#X connect 3 0 6 3;
#X connect 4 0 6 4;
#X connect 5 0 6 5;
#X connect 6 0 8 0;
#X connect 6 1 9 0;
#X connect 7 0 2 0;
#X connect 7 0 3 0;
#X connect 7 0 4 0;
#X connect 7 0 5 0;
