#N canvas 7 93 946 522 10;
#X floatatom 155 467 5 0 0 1 ms - -, f 5;
#N canvas 517 90 528 262 delay_channels 0;
#X obj 18 29 inlet~ signal;
#X obj 194 29 inlet del-left;
#X obj 376 29 inlet del-right;
#X obj 194 157 sig~;
#X obj 376 157 sig~;
#X obj 144 213 outlet~;
#X obj 245 215 outlet~;
#N canvas 0 50 450 212 delay-writer 0;
#X obj 22 27 inlet~;
#X obj 52 87 delwrite~ \$0-delline1 2000;
#X obj 116 113 delwrite~ \$0-delline2 2000;
#X obj 22 159 outlet~;
#X obj 84 28 inlet~;
#X connect 0 0 1 0;
#X connect 0 0 3 0;
#X connect 4 0 2 0;
#X restore 144 77 pd delay-writer;
#N canvas 274 167 693 322 delay-reader 0;
#X obj 146 173 vd~ \$0-delline1;
#X obj 328 173 vd~ \$0-delline2;
#X obj 146 199 outlet~;
#X obj 327 199 outlet~;
#X obj 146 147 inlet~;
#X obj 328 147 inlet~;
#X obj 35 39 inlet~;
#X text 34 61 dummy;
#X text 34 75 (to force execution order !);
#X connect 0 0 2 0;
#X connect 1 0 3 0;
#X connect 4 0 0 0;
#X connect 5 0 1 0;
#X restore 144 185 pd delay-reader;
#X text 153 116 <- needed for right execution order !;
#X obj 123 27 inlet~;
#X floatatom 272 80 5 0 0 0 - - -, f 5;
#X floatatom 402 77 5 0 0 0 - - -, f 5;
#X connect 0 0 7 0;
#X connect 1 0 3 0;
#X connect 1 0 11 0;
#X connect 2 0 4 0;
#X connect 2 0 12 0;
#X connect 3 0 8 1;
#X connect 4 0 8 2;
#X connect 7 0 8 0;
#X connect 8 0 5 0;
#X connect 8 1 6 0;
#X connect 10 0 7 1;
#X restore 106 489 pd delay_channels;
#X floatatom 205 467 5 0 0 1 ms - -, f 5;
#X obj 158 442 hsl 128 15 0 4 0 0 empty empty empty -2 -8 0 10 -233017
-1 -1 770 1;
#X obj 210 409 hsl 128 15 0 4 0 0 empty empty empty -2 -8 0 10 -233017
-1 -1 770 1;
#X text 255 408 right;
#X text 203 441 left;
#X text 441 216 a;
#X msg 412 217 340;
#X text 397 216 c;
#X floatatom 361 217 5 0 0 0 - - -, f 5;
#X text 327 214 theta;
#X obj 361 328 *;
#X obj 361 378 +;
#X obj 361 416 /;
#X obj 361 125 t b b b;
#X obj 361 90 bng 15 250 50 0 empty empty empty 17 7 0 10 -262144 -1
-1;
#X msg 455 217 0.0825;
#X obj 361 479 * 1000;
#X floatatom 361 505 5 0 0 0 - - -, f 5;
#X text 365 433 L timedelay in seconds;
#X text 394 507 L timedelay in miliseconds;
#X text 422 87 TL;
#X text 644 216 a;
#X msg 615 217 340;
#X text 600 216 c;
#X floatatom 563 217 5 0 0 0 - - -, f 5;
#X obj 563 293 *;
#X obj 563 416 /;
#X obj 563 129 t b b b;
#X floatatom 563 445 10 0 0 0 - - -, f 10;
#X obj 563 91 bng 15 250 50 0 empty empty empty 17 7 0 10 -262144 -1
-1;
#X msg 658 217 0.0825;
#X obj 563 477 * 1000;
#X floatatom 563 503 5 0 0 0 - - -, f 5;
#X obj 563 377 +;
#X obj 563 331 * -1;
#X text 623 88 TR;
#X text 644 445 R timedelay in seconds;
#X text 600 505 R timedelay in miliseconds;
#X obj 303 312 spigot;
#X obj 288 271 > 0;
#X obj 139 318 spigot;
#X obj 563 63 loadbang;
#X floatatom 361 448 10 0 0 0 - - -, f 10;
#X text 523 216 theta;
#X obj 214 211 r angle;
#X obj 461 0 s angle;
#X obj 563 255 sin;
#X obj 563 538 s delayr;
#X obj 139 213 r delayr;
#X obj 193 317 spigot;
#X obj 250 316 spigot;
#X obj 273 211 r delayl;
#X obj 171 273 <= 0;
#X obj 458 -95 inlet;
#X obj 73 -25 inlet~;
#X obj 167 563 outlet~;
#X obj 90 562 outlet~;
#X obj 144 -23 inlet~;
#X text 141 -44 R channel;
#X text 63 -47 L channel;
#X obj 361 539 s delayl;
#X obj 519 -18 abs;
#X text 931 220 a;
#X msg 902 221 340;
#X text 887 220 c;
#X floatatom 851 221 5 0 0 0 - - -, f 5;
#X text 817 218 theta;
#X obj 851 332 *;
#X obj 851 382 +;
#X obj 851 420 /;
#X obj 851 129 t b b b;
#X obj 851 94 bng 15 250 50 0 empty empty empty 17 7 0 10 -262144 -1
-1;
#X msg 945 221 0.0825;
#X obj 851 483 * 1000;
#X floatatom 851 509 5 0 0 0 - - -, f 5;
#X text 855 437 L timedelay in seconds;
#X text 884 511 L timedelay in miliseconds;
#X text 912 91 TL;
#X text 1134 220 a;
#X msg 1105 221 340;
#X text 1090 220 c;
#X floatatom 1053 221 5 0 0 0 - - -, f 5;
#X obj 1053 297 *;
#X obj 1053 420 /;
#X obj 1053 133 t b b b;
#X floatatom 1053 449 10 0 0 0 - - -, f 10;
#X obj 1053 95 bng 15 250 50 0 empty empty empty 17 7 0 10 -262144
-1 -1;
#X msg 1148 221 0.0825;
#X obj 1053 481 * 1000;
#X floatatom 1053 507 5 0 0 0 - - -, f 5;
#X obj 1053 381 +;
#X obj 1053 335 * -1;
#X text 1113 92 TR;
#X text 1134 449 R timedelay in seconds;
#X text 1090 509 R timedelay in miliseconds;
#X obj 1053 67 loadbang;
#X floatatom 851 452 10 0 0 0 - - -, f 10;
#X text 1013 220 theta;
#X obj 1053 259 sin;
#X obj 1053 542 s delayr;
#X obj 851 543 s delayl;
#X obj 596 1 spigot;
#X obj 661 0 spigot;
#X obj 703 -25 tgl 15 0 empty empty empty 17 7 0 10 -262144 -1 -1 1
1;
#X obj 633 -24 tgl 15 0 empty empty empty 17 7 0 10 -262144 -1 -1 0
1;
#X obj 580 -44 <= 1.5707;
#X obj 691 -56 > 1.5707;
#X obj 851 240 * -1;
#X obj 851 262 + 3.1415;
#X connect 0 0 1 2;
#X connect 1 0 58 0;
#X connect 1 1 57 0;
#X connect 2 0 1 3;
#X connect 3 0 0 0;
#X connect 4 0 2 0;
#X connect 8 0 14 1;
#X connect 10 0 12 0;
#X connect 12 0 13 0;
#X connect 13 0 14 0;
#X connect 14 0 44 0;
#X connect 15 0 10 0;
#X connect 15 1 8 0;
#X connect 15 2 17 0;
#X connect 16 0 15 0;
#X connect 17 0 12 1;
#X connect 17 0 13 1;
#X connect 18 0 19 0;
#X connect 19 0 62 0;
#X connect 24 0 28 1;
#X connect 26 0 48 0;
#X connect 27 0 36 0;
#X connect 28 0 30 0;
#X connect 29 0 26 0;
#X connect 29 1 24 0;
#X connect 29 2 32 0;
#X connect 30 0 33 0;
#X connect 31 0 29 0;
#X connect 32 0 27 1;
#X connect 32 0 35 1;
#X connect 33 0 34 0;
#X connect 34 0 49 0;
#X connect 35 0 28 0;
#X connect 36 0 35 0;
#X connect 40 0 4 0;
#X connect 41 0 40 1;
#X connect 41 0 51 1;
#X connect 42 0 3 0;
#X connect 43 0 31 0;
#X connect 43 0 16 0;
#X connect 44 0 18 0;
#X connect 46 0 41 0;
#X connect 46 0 54 0;
#X connect 48 0 27 0;
#X connect 50 0 40 0;
#X connect 50 0 42 0;
#X connect 51 0 3 0;
#X connect 52 0 4 0;
#X connect 53 0 51 0;
#X connect 53 0 52 0;
#X connect 54 0 42 1;
#X connect 54 0 52 1;
#X connect 55 0 47 0;
#X connect 55 0 63 0;
#X connect 56 0 1 0;
#X connect 59 0 1 1;
#X connect 63 0 103 0;
#X connect 63 0 104 0;
#X connect 63 0 107 0;
#X connect 63 0 108 0;
#X connect 65 0 71 1;
#X connect 67 0 109 0;
#X connect 69 0 70 0;
#X connect 70 0 71 0;
#X connect 71 0 98 0;
#X connect 72 0 67 0;
#X connect 72 1 65 0;
#X connect 72 2 74 0;
#X connect 73 0 72 0;
#X connect 74 0 69 1;
#X connect 74 0 70 1;
#X connect 75 0 76 0;
#X connect 76 0 102 0;
#X connect 81 0 85 1;
#X connect 83 0 100 0;
#X connect 84 0 93 0;
#X connect 85 0 87 0;
#X connect 86 0 83 0;
#X connect 86 1 81 0;
#X connect 86 2 89 0;
#X connect 87 0 90 0;
#X connect 88 0 86 0;
#X connect 89 0 84 1;
#X connect 89 0 92 1;
#X connect 90 0 91 0;
#X connect 91 0 101 0;
#X connect 92 0 85 0;
#X connect 93 0 92 0;
#X connect 97 0 88 0;
#X connect 97 0 73 0;
#X connect 98 0 75 0;
#X connect 100 0 84 0;
#X connect 103 0 26 0;
#X connect 103 0 10 0;
#X connect 104 0 67 0;
#X connect 104 0 83 0;
#X connect 105 0 104 1;
#X connect 106 0 103 1;
#X connect 107 0 106 0;
#X connect 108 0 105 0;
#X connect 109 0 110 0;
#X connect 110 0 69 0;
