#N canvas 306 75 974 583 10;
#X obj 42 415 *~;
#X text 585 17 Sound Pressure in the Free Field P = k/r P > sound pressure
k > a costant r > distance Reference: Alton Everest p 33-38;
#X obj 42 46 inlet~;
#X obj 42 457 outlet~;
#X obj 42 354 lop~;
#X floatatom 63 336 15 0 0 0 - - -, f 15;
#X obj 63 264 t b f;
#X obj 63 314 /;
#X msg 63 289 10000;
#X obj 302 60 hsl 128 15 0 127 0 0 empty empty empty -2 -8 0 10 -262144
-1 -1 0 1;
#X obj 299 80 / 127;
#X obj 299 102 * 20;
#X floatatom 209 227 5 0 0 0 - - -, f 5;
#X obj 209 205 / 20;
#X text 297 26 0 meters or less is amplitude 1 \; 20 meters is amplitude
of 0;
#X obj 209 295 -;
#X obj 209 246 t b f;
#X msg 209 268 1;
#X floatatom 209 317 5 0 0 0 - - -, f 5;
#X obj 209 357 line;
#X floatatom 209 379 5 0 0 0 - - -, f 5;
#X msg 209 336 \$1 20;
#X floatatom 242 114 5 0 0 0 - - -, f 5;
#X obj 242 92 < 20;
#X obj 209 135 spigot;
#X obj 209 34 inlet;
#X floatatom 209 157 5 0 0 0 - - -, f 5;
#X floatatom 209 56 5 0 0 0 - - -, f 5;
#X connect 0 0 3 0;
#X connect 2 0 4 0;
#X connect 4 0 0 0;
#X connect 5 0 4 1;
#X connect 6 0 8 0;
#X connect 6 1 7 1;
#X connect 7 0 5 0;
#X connect 8 0 7 0;
#X connect 9 0 10 0;
#X connect 10 0 11 0;
#X connect 12 0 16 0;
#X connect 13 0 12 0;
#X connect 15 0 18 0;
#X connect 16 0 17 0;
#X connect 16 1 15 1;
#X connect 17 0 15 0;
#X connect 18 0 21 0;
#X connect 19 0 20 0;
#X connect 20 0 0 1;
#X connect 21 0 19 0;
#X connect 22 0 24 1;
#X connect 23 0 22 0;
#X connect 24 0 26 0;
#X connect 25 0 27 0;
#X connect 26 0 13 0;
#X connect 26 0 6 0;
#X connect 27 0 24 0;
#X connect 27 0 23 0;
