#N canvas 23 35 974 583 10;
#X obj 233 84 hsl 250 15 1 150 0 0 empty empty empty -2 -8 0 10 -262144
-1 -1 162 1;
#X floatatom 186 83 5 0 0 0 - - -, f 5;
#X obj 186 149 /;
#X floatatom 224 206 5 0 0 0 - - -, f 5;
#X obj 172 130 bng 15 250 50 0 empty empty empty 17 7 0 10 -262144
-1 -1;
#X obj 186 37 loadbang;
#X obj 43 547 *~;
#X text 495 17 Sound Pressure in the Free Field P = k/r P > sound pressure
k > a costant r > distance Reference: Alton Everest p 33-38;
#X obj 41 46 inlet~;
#X obj 43 577 outlet~;
#X obj 304 45 inlet;
#X msg 230 63 2;
#X obj 42 204 lop~;
#X floatatom 86 190 15 0 0 0 - - -, f 15;
#X obj 88 108 t b f;
#X obj 88 158 /;
#X msg 186 60 2;
#X text 572 82 2/d;
#X obj 186 175 clip 0.001 1;
#X obj 161 271 line;
#X obj 161 298 log 10;
#X obj 161 322 * 10;
#X floatatom 161 344 5 0 0 0 - - -, f 5;
#X obj 161 367 abs;
#X obj 61 446 dbtorms;
#X msg 88 133 18000;
#X msg 161 242 \$1 50;
#X obj 61 494 line;
#X msg 61 470 \$1 50;
#X obj 61 516 clip 0 1;
#X floatatom 131 420 5 0 0 0 - - -, f 5;
#X obj 131 398 -;
#X msg 112 375 100;
#X floatatom 234 127 5 0 0 0 - - -, f 5;
#X connect 0 0 2 1;
#X connect 0 0 4 0;
#X connect 0 0 14 0;
#X connect 0 0 33 0;
#X connect 1 0 2 0;
#X connect 2 0 18 0;
#X connect 4 0 2 0;
#X connect 5 0 16 0;
#X connect 5 0 11 0;
#X connect 6 0 9 0;
#X connect 8 0 12 0;
#X connect 10 0 0 0;
#X connect 11 0 0 0;
#X connect 12 0 6 0;
#X connect 13 0 12 1;
#X connect 14 0 25 0;
#X connect 14 1 15 1;
#X connect 15 0 13 0;
#X connect 16 0 1 0;
#X connect 18 0 3 0;
#X connect 18 0 26 0;
#X connect 19 0 20 0;
#X connect 20 0 21 0;
#X connect 21 0 22 0;
#X connect 22 0 23 0;
#X connect 23 0 31 1;
#X connect 23 0 32 0;
#X connect 24 0 28 0;
#X connect 25 0 15 0;
#X connect 26 0 19 0;
#X connect 27 0 29 0;
#X connect 28 0 27 0;
#X connect 29 0 6 1;
#X connect 30 0 24 0;
#X connect 31 0 30 0;
#X connect 32 0 31 0;
