#N canvas 0 0 749 664 10;
#X obj 185 259 *~;
#X obj 321 244 - 135;
#X obj 319 297 abs;
#X floatatom 300 -64 5 0 0 0 - - -;
#X obj 390 133 pow 2;
#X obj 390 159 + 2.89;
#X text 440 159 1.7 m (ear height) squared;
#X obj 390 186 sqrt;
#X obj 390 219 * 2;
#X floatatom 508 310 5 0 0 0 - - -;
#X obj 390 278 -;
#X obj 390 302 / 340;
#X floatatom 390 330 5 0 0 0 - - -;
#X obj 244 192 /;
#X msg 252 166 1;
#X obj 508 407 /;
#X msg 508 381 1;
#X obj 390 364 * 44100;
#X obj 321 393 delay~ 44100;
#X obj 321 438 /~ 1.4;
#X obj 320 473 *~;
#X obj 181 487 lop~;
#X obj 181 513 dac~;
#X obj 302 52 t i i i i;
#X obj 390 248 t i i;
#X obj 183 153 readsf~;
#X obj 168 123 tgl 15 0 empty empty empty 17 7 0 10 -262144 -1 -1 1
1;
#X msg 198 74 open trombonesample44khz.wav;
#X obj 294 369 mtof;
#X floatatom 256 229 5 0 0 0 - - -;
#X obj 262 134 t b i;
#X floatatom 424 401 8 0 0 0 - - -;
#X obj 302 24 spigot;
#X floatatom 425 -11 5 0 0 0 - - -;
#X obj 300 -42 t i i;
#X obj 340 4 >= 1;
#X floatatom 547 455 5 0 0 0 - - -;
#X obj 508 349 t b i;
#X obj 391 109 / 2;
#X obj 314 -106 hsl 128 15 10 1000 0 0 empty empty empty -2 -8 0 10
-262144 -1 -1 0 1;
#X obj 301 -83 / 10;
#X obj 442 52 line;
#X floatatom 497 48 5 0 0 0 - - -;
#X obj 112 -55 inlet~;
#X floatatom 284 404 8 0 0 0 - - -;
#X msg 436 17 \$1 50;
#X obj 102 495 outlet~;
#X obj 248 -102 inlet;
#N canvas -8 -8 1366 685 extern 0;
#X obj 195 269 *~;
#X obj 331 254 - 135;
#X obj 329 307 abs;
#X floatatom 310 -54 5 0 0 0 - - -;
#X obj 400 143 pow 2;
#X obj 400 169 + 2.89;
#X text 450 169 1.7 m (ear height) squared;
#X obj 400 196 sqrt;
#X obj 400 229 * 2;
#X floatatom 518 320 5 0 0 0 - - -;
#X obj 400 288 -;
#X obj 400 312 / 340;
#X floatatom 400 340 5 0 0 0 - - -;
#X obj 254 202 /;
#X msg 262 176 1;
#X obj 518 417 /;
#X msg 518 391 1;
#X obj 400 374 * 44100;
#X obj 331 403 delay~ 44100;
#X obj 331 448 /~ 1.4;
#X obj 330 483 *~;
#X obj 191 497 lop~;
#X obj 312 62 t i i i i;
#X obj 400 258 t i i;
#X obj 304 379 mtof;
#X floatatom 266 239 5 0 0 0 - - -;
#X obj 272 144 t b i;
#X floatatom 434 411 8 0 0 0 - - -;
#X obj 312 34 spigot;
#X floatatom 435 -1 5 0 0 0 - - -;
#X obj 310 -32 t i i;
#X obj 350 14 >= 1;
#X floatatom 557 465 5 0 0 0 - - -;
#X obj 518 359 t b i;
#X obj 401 119 / 2;
#X obj 324 -96 hsl 128 15 10 1000 0 0 empty empty empty -2 -8 0 10
-262144 -1 -1 0 1;
#X obj 311 -73 / 10;
#X obj 452 62 line;
#X floatatom 507 58 5 0 0 0 - - -;
#X obj 196 -35 inlet~;
#X floatatom 294 414 8 0 0 0 - - -;
#X msg 446 27 \$1 50;
#X obj 190 525 outlet~;
#X obj 258 -92 inlet;
#X connect 0 0 21 0;
#X connect 1 0 2 0;
#X connect 2 0 24 0;
#X connect 3 0 30 0;
#X connect 4 0 5 0;
#X connect 5 0 7 0;
#X connect 7 0 8 0;
#X connect 8 0 23 0;
#X connect 9 0 33 0;
#X connect 10 0 11 0;
#X connect 11 0 12 0;
#X connect 12 0 17 0;
#X connect 13 0 0 1;
#X connect 13 0 25 0;
#X connect 14 0 13 0;
#X connect 15 0 20 1;
#X connect 15 0 32 0;
#X connect 16 0 15 0;
#X connect 17 0 18 1;
#X connect 17 0 27 0;
#X connect 18 0 19 0;
#X connect 19 0 20 0;
#X connect 20 0 21 0;
#X connect 21 0 42 0;
#X connect 22 0 26 0;
#X connect 22 1 1 0;
#X connect 22 2 34 0;
#X connect 22 3 10 1;
#X connect 23 0 10 0;
#X connect 23 1 9 0;
#X connect 24 0 21 1;
#X connect 24 0 40 0;
#X connect 26 0 14 0;
#X connect 26 1 13 1;
#X connect 28 0 29 0;
#X connect 29 0 41 0;
#X connect 30 0 28 0;
#X connect 30 1 31 0;
#X connect 31 0 28 1;
#X connect 33 0 16 0;
#X connect 33 1 15 1;
#X connect 34 0 4 0;
#X connect 35 0 36 0;
#X connect 36 0 3 0;
#X connect 37 0 22 0;
#X connect 37 0 38 0;
#X connect 39 0 0 0;
#X connect 39 0 18 0;
#X connect 41 0 37 0;
#X connect 43 0 3 0;
#X restore 527 -42 pd extern;
#X connect 0 0 21 0;
#X connect 1 0 2 0;
#X connect 2 0 28 0;
#X connect 3 0 34 0;
#X connect 4 0 5 0;
#X connect 5 0 7 0;
#X connect 7 0 8 0;
#X connect 8 0 24 0;
#X connect 9 0 37 0;
#X connect 10 0 11 0;
#X connect 11 0 12 0;
#X connect 12 0 17 0;
#X connect 13 0 0 1;
#X connect 13 0 29 0;
#X connect 14 0 13 0;
#X connect 15 0 20 1;
#X connect 15 0 36 0;
#X connect 16 0 15 0;
#X connect 17 0 18 1;
#X connect 17 0 31 0;
#X connect 18 0 19 0;
#X connect 19 0 20 0;
#X connect 20 0 21 0;
#X connect 21 0 22 0;
#X connect 21 0 22 1;
#X connect 21 0 46 0;
#X connect 23 0 30 0;
#X connect 23 1 1 0;
#X connect 23 2 38 0;
#X connect 23 3 10 1;
#X connect 24 0 10 0;
#X connect 24 1 9 0;
#X connect 25 0 18 0;
#X connect 25 0 0 0;
#X connect 26 0 25 0;
#X connect 27 0 25 0;
#X connect 28 0 21 1;
#X connect 28 0 44 0;
#X connect 30 0 14 0;
#X connect 30 1 13 1;
#X connect 32 0 33 0;
#X connect 33 0 45 0;
#X connect 34 0 32 0;
#X connect 34 1 35 0;
#X connect 35 0 32 1;
#X connect 37 0 16 0;
#X connect 37 1 15 1;
#X connect 38 0 4 0;
#X connect 39 0 40 0;
#X connect 40 0 3 0;
#X connect 41 0 23 0;
#X connect 41 0 42 0;
#X connect 43 0 0 0;
#X connect 45 0 41 0;
#X connect 47 0 3 0;
