#N canvas 210 61 840 560 10;
#X obj 13 -54 cnv 15 350 500 empty empty empty 20 12 0 14 -233017 -66577
0;
#X obj 433 -54 cnv 15 420 500 empty empty empty 20 12 0 14 -233017
-66577 0;
#X floatatom 109 338 5 0 0 1 ms - -, f 5;
#N canvas 517 90 528 262 delay_channels 0;
#X obj 18 29 inlet~ signal;
#X obj 194 29 inlet del-left;
#X obj 376 29 inlet del-right;
#X obj 194 157 sig~;
#X obj 376 157 sig~;
#X obj 144 213 outlet~;
#X obj 245 215 outlet~;
#N canvas 0 50 450 212 delay-writer 0;
#X obj 22 27 inlet~;
#X obj 52 87 delwrite~ \$0-delline1 2000;
#X obj 116 113 delwrite~ \$0-delline2 2000;
#X obj 22 159 outlet~;
#X obj 84 28 inlet~;
#X connect 0 0 1 0;
#X connect 0 0 3 0;
#X connect 4 0 2 0;
#X restore 144 77 pd delay-writer;
#N canvas 274 167 693 322 delay-reader 0;
#X obj 146 173 vd~ \$0-delline1;
#X obj 328 173 vd~ \$0-delline2;
#X obj 146 199 outlet~;
#X obj 327 199 outlet~;
#X obj 146 147 inlet~;
#X obj 328 147 inlet~;
#X obj 35 39 inlet~;
#X text 34 61 dummy;
#X text 34 75 (to force execution order !);
#X connect 0 0 2 0;
#X connect 1 0 3 0;
#X connect 4 0 0 0;
#X connect 5 0 1 0;
#X restore 144 185 pd delay-reader;
#X text 153 116 <- needed for right execution order !;
#X obj 123 27 inlet~;
#X floatatom 272 80 5 0 0 0 - - -, f 5;
#X floatatom 402 77 5 0 0 0 - - -, f 5;
#X connect 0 0 7 0;
#X connect 1 0 3 0;
#X connect 1 0 11 0;
#X connect 2 0 4 0;
#X connect 2 0 12 0;
#X connect 3 0 8 1;
#X connect 4 0 8 2;
#X connect 7 0 8 0;
#X connect 8 0 5 0;
#X connect 8 1 6 0;
#X connect 10 0 7 1;
#X restore 60 383 pd delay_channels;
#X floatatom 176 360 5 0 0 1 ms - -, f 5;
#X obj 112 315 hsl 100 15 0 1 0 0 empty empty Left_channel_delay -2
-8 0 10 -233017 -1 -1 0 1;
#X obj 179 270 hsl 100 15 0 1 0 0 empty empty Right_channel_delay -2
-8 0 10 -233017 -1 -1 0 1;
#X obj 226 226 spigot;
#X obj 196 85 > 0, f 4;
#X obj 109 191 spigot;
#X obj 157 191 spigot;
#X obj 176 226 spigot;
#X obj 147 86 <= 0;
#X obj 59 106 inlet~;
#X obj 175 407 outlet~;
#X obj 60 406 outlet~;
#X obj 97 45 inlet~;
#X text 94 24 R channel;
#X text 50 84 L channel;
#X obj 170 44 r \$0-angle;
#X obj 196 134 r \$0-delayl;
#X obj 109 134 r \$0-delayr;
#X obj 574 214 loadbang;
#X obj 482 19 inlet;
#X obj 544 90 abs;
#X obj 574 246 bng 15 250 50 0 empty empty empty 17 7 0 10 -262144
-1 -1;
#X obj 544 183 spigot;
#X obj 634 184 spigot;
#X obj 673 147 tgl 15 0 empty empty empty 17 7 0 10 -262144 -1 -1 0
1;
#X obj 583 159 tgl 15 0 empty empty empty 17 7 0 10 -262144 -1 -1 0
1;
#X obj 583 125 <= 1.5707;
#X obj 673 119 > 1.5707;
#X obj 482 63 s \$0-angle;
#X obj 449 312 s \$0-delayl;
#X obj 662 316 s \$0-delayl;
#X obj 574 316 s \$0-delayr;
#N canvas 0 50 920 575 delayLrear 0;
#X text 140 -26 a;
#X msg 111 -25 340;
#X text 96 -26 c;
#X floatatom 60 -25 5 0 0 0 - - -, f 5;
#X text 14 -27 theta;
#X obj 60 86 *;
#X obj 60 136 +;
#X obj 60 174 /;
#X obj 60 -117 t b b b;
#X msg 154 -25 0.0825;
#X obj 60 237 * 1000;
#X floatatom 60 263 5 0 0 0 - - -, f 5;
#X text 64 191 L timedelay in seconds;
#X text 93 265 L timedelay in miliseconds;
#X floatatom 60 206 10 0 0 0 - - -, f 10;
#X obj 60 -6 * -1;
#X obj 60 16 + 3.1415;
#X obj 60 -157 inlet;
#X obj 121 -158 inlet azimuth;
#X obj 60 289 outlet;
#X connect 1 0 7 1;
#X connect 3 0 15 0;
#X connect 5 0 6 0;
#X connect 6 0 7 0;
#X connect 7 0 14 0;
#X connect 8 0 3 0;
#X connect 8 1 1 0;
#X connect 8 2 9 0;
#X connect 9 0 5 1;
#X connect 9 0 6 1;
#X connect 10 0 11 0;
#X connect 11 0 19 0;
#X connect 14 0 10 0;
#X connect 15 0 16 0;
#X connect 16 0 5 0;
#X connect 17 0 8 0;
#X connect 18 0 3 0;
#X restore 662 283 pd delayLrear;
#N canvas 242 50 450 669 delayR 0;
#X obj 30 48 inlet;
#X obj 120 49 inlet azimuth;
#X text 111 177 a;
#X msg 82 178 340;
#X text 67 177 c;
#X floatatom 30 178 5 0 0 0 - - -, f 5;
#X obj 30 254 *;
#X obj 30 377 /;
#X obj 30 90 t b b b;
#X floatatom 30 406 10 0 0 0 - - -, f 10;
#X msg 125 178 0.0825;
#X obj 30 438 * 1000;
#X floatatom 30 464 5 0 0 0 - - -, f 5;
#X obj 30 338 +;
#X obj 30 292 * -1;
#X text 111 406 R timedelay in seconds;
#X text 67 466 R timedelay in miliseconds;
#X text -10 177 theta;
#X obj 30 216 sin;
#X obj 30 505 outlet;
#X connect 0 0 8 0;
#X connect 1 0 5 0;
#X connect 3 0 7 1;
#X connect 5 0 18 0;
#X connect 6 0 14 0;
#X connect 7 0 9 0;
#X connect 8 0 5 0;
#X connect 8 1 3 0;
#X connect 8 2 10 0;
#X connect 9 0 11 0;
#X connect 10 0 6 1;
#X connect 10 0 13 1;
#X connect 11 0 12 0;
#X connect 12 0 19 0;
#X connect 13 0 7 0;
#X connect 14 0 13 0;
#X connect 18 0 6 0;
#X restore 574 284 pd delayR;
#N canvas 228 73 920 575 delayLfront 0;
#X obj 60 -157 inlet;
#X obj 121 -158 inlet azimuth;
#X obj 60 289 outlet;
#X text 140 -38 a;
#X msg 111 -37 340;
#X text 96 -38 c;
#X floatatom 60 -37 5 0 0 0 - - -, f 5;
#X obj 60 74 *;
#X obj 60 124 +;
#X obj 60 162 /;
#X obj 60 -129 t b b b;
#X msg 154 -37 0.0825;
#X obj 60 225 * 1000;
#X floatatom 60 251 5 0 0 0 - - -, f 5;
#X text 64 179 L timedelay in seconds;
#X floatatom 60 194 10 0 0 0 - - -, f 10;
#X text 93 253 L timedelay in ms;
#X connect 0 0 10 0;
#X connect 1 0 6 0;
#X connect 4 0 9 1;
#X connect 6 0 7 0;
#X connect 7 0 8 0;
#X connect 8 0 9 0;
#X connect 9 0 15 0;
#X connect 10 0 6 0;
#X connect 10 1 4 0;
#X connect 10 2 11 0;
#X connect 11 0 7 1;
#X connect 11 0 8 1;
#X connect 12 0 13 0;
#X connect 13 0 2 0;
#X connect 15 0 12 0;
#X restore 449 284 pd delayLfront;
#X text 447 -29 We receive the azimuth angle in radians and we compute
the delays for each ear;
#X text 438 364 The delays are computed according to the Woodworth's
formulas: ITD = (a/c)(thetha+sin(theta)) for 0<theta<pi/2 ITD =(a/c)(pi-theta+sin(theta))
for pi/2<theta<pi;
#X text 45 -45 The sound is received in two channels \, then a delay
for each channel is added;
#X connect 2 0 3 2;
#X connect 3 0 15 0;
#X connect 3 1 14 0;
#X connect 4 0 3 3;
#X connect 5 0 2 0;
#X connect 6 0 4 0;
#X connect 7 0 6 0;
#X connect 8 0 7 1;
#X connect 8 0 10 1;
#X connect 9 0 5 0;
#X connect 10 0 5 0;
#X connect 11 0 6 0;
#X connect 12 0 9 1;
#X connect 12 0 11 1;
#X connect 13 0 3 0;
#X connect 16 0 3 1;
#X connect 19 0 8 0;
#X connect 19 0 12 0;
#X connect 20 0 10 0;
#X connect 20 0 11 0;
#X connect 21 0 7 0;
#X connect 21 0 9 0;
#X connect 22 0 25 0;
#X connect 23 0 24 0;
#X connect 23 0 32 0;
#X connect 24 0 26 0;
#X connect 24 0 27 0;
#X connect 24 0 30 0;
#X connect 24 0 31 0;
#X connect 25 0 36 0;
#X connect 25 0 37 0;
#X connect 25 0 38 0;
#X connect 26 0 37 1;
#X connect 26 0 38 1;
#X connect 27 0 36 1;
#X connect 27 0 37 1;
#X connect 28 0 27 1;
#X connect 29 0 26 1;
#X connect 30 0 29 0;
#X connect 31 0 28 0;
#X connect 36 0 34 0;
#X connect 37 0 35 0;
#X connect 38 0 33 0;
