#N canvas 157 31 691 605 10;
#X obj 8 359 cnv 15 470 650 empty empty Computing_the_delays_in_ms
20 12 0 14 -233017 -66577 0;
#X obj 8 -24 cnv 15 470 370 empty empty Computing_the_delays_in_samples
20 12 0 14 -233017 -66577 0;
#X obj 152 65 inlet;
#X obj 226 65 inlet;
#X obj 73 65 inlet~;
#X obj 145 231 cos, f 6;
#X obj 127 81 bng 15 250 50 0 empty empty empty 17 7 0 10 -262144 -1
-1;
#X obj 145 203 / 2;
#X obj 127 257 *;
#X obj 127 283 *;
#X obj 205 260 sin, f 5;
#X obj 205 237 *;
#X obj 109 323 +;
#X obj 223 213 -;
#X msg 223 187 90;
#X obj 106 523 f;
#X obj 139 523 + 1;
#X obj 70 477 loadbang;
#X msg 155 485 bang;
#X obj 97 678 spigot;
#X obj 154 703 spigot;
#N canvas 0 50 550 318 delay-writer 0;
#X obj 22 27 inlet~;
#X obj 22 159 outlet~;
#X obj 116 113 delwrite~ \$0-delline2pm 40;
#X obj 151 145 delwrite~ \$0-delline3pm 40;
#X obj 215 173 delwrite~ \$0-delline4pm 40;
#X obj 257 202 delwrite~ \$0-delline5pm 40;
#X obj 52 87 delwrite~ \$0-delline1pm 2000;
#X connect 0 0 1 0;
#X connect 0 0 2 0;
#X connect 0 0 3 0;
#X connect 0 0 4 0;
#X connect 0 0 5 0;
#X connect 0 0 6 0;
#X restore 73 387 pd delay-writer;
#N canvas 33 53 693 322 delay-reader 0;
#X obj 31 197 outlet~;
#X obj 168 200 outlet~;
#X obj 31 145 inlet~;
#X obj 169 148 inlet~;
#X obj 294 197 outlet~;
#X obj 295 145 inlet~;
#X obj 423 196 outlet~;
#X obj 424 144 inlet~;
#X obj 555 197 outlet~;
#X obj 556 145 inlet~;
#X obj -50 64 inlet~;
#X text -51 86 dummy;
#X text -51 100 (to force execution order !);
#X obj 169 174 vd~ \$0-delline2pm;
#X obj 295 171 vd~ \$0-delline3pm;
#X obj 424 170 vd~ \$0-delline4pm;
#X obj 556 171 vd~ \$0-delline5pm;
#X obj 31 171 vd~ \$0-delline1pm;
#X connect 2 0 17 0;
#X connect 3 0 13 0;
#X connect 5 0 14 0;
#X connect 7 0 15 0;
#X connect 9 0 16 0;
#X connect 13 0 1 0;
#X connect 14 0 4 0;
#X connect 15 0 6 0;
#X connect 16 0 8 0;
#X connect 17 0 0 0;
#X restore 72 834 pd delay-reader;
#X obj 205 722 spigot;
#X obj 342 747 spigot;
#X obj 342 803 sig~;
#X obj 276 733 spigot;
#X obj 87 914 outlet~;
#X obj 133 444 / 44100;
#X msg 70 516 0;
#X obj 117 552 mod 5;
#X obj 117 583 select 0 1 2 3 4;
#X obj 117 648 tgl 15 0 empty empty empty 17 7 0 10 -262144 -1 -1 0
1;
#X obj 156 649 tgl 15 0 empty empty empty 17 7 0 10 -262144 -1 -1 0
1;
#X obj 177 649 tgl 15 0 empty empty empty 17 7 0 10 -262144 -1 -1 0
1;
#X obj 198 649 tgl 15 0 empty empty empty 17 7 0 10 -262144 -1 -1 0
1;
#X obj 137 648 tgl 15 0 empty empty empty 17 7 0 10 -262144 -1 -1 0
1;
#N canvas 680 267 450 300 A 0;
#X obj 66 32 inlet;
#X obj 113 31 inlet;
#X obj 159 30 inlet;
#X obj 254 29 inlet;
#X obj 206 29 inlet;
#X obj 36 107 outlet;
#X msg 70 74 1;
#X msg 112 74 5;
#X msg 149 74 5;
#X msg 194 73 5;
#X msg 247 72 5, f 10;
#X connect 0 0 6 0;
#X connect 1 0 7 0;
#X connect 2 0 8 0;
#X connect 3 0 10 0;
#X connect 4 0 9 0;
#X connect 6 0 5 0;
#X connect 7 0 5 0;
#X connect 8 0 5 0;
#X connect 9 0 5 0;
#X connect 10 0 5 0;
#X restore 83 132 pd A;
#N canvas 719 285 450 300 D 0;
#X msg 149 74 0.5;
#X obj 66 32 inlet;
#X obj 113 31 inlet;
#X obj 159 30 inlet;
#X obj 254 29 inlet;
#X obj 206 29 inlet;
#X obj 36 107 outlet;
#X msg 70 74 1;
#X msg 112 74 0.5;
#X msg 194 73 0.5;
#X msg 247 72 0.5, f 11;
#X connect 0 0 6 0;
#X connect 1 0 7 0;
#X connect 2 0 8 0;
#X connect 3 0 0 0;
#X connect 4 0 10 0;
#X connect 5 0 9 0;
#X connect 7 0 6 0;
#X connect 8 0 6 0;
#X connect 9 0 6 0;
#X connect 10 0 6 0;
#X restore 194 146 pd D;
#N canvas 719 285 450 300 B 0;
#X obj 66 32 inlet;
#X obj 113 31 inlet;
#X obj 159 30 inlet;
#X obj 254 29 inlet;
#X obj 206 29 inlet;
#X obj 36 107 outlet;
#X msg 70 74 2;
#X msg 112 74 4;
#X msg 149 74 7;
#X msg 194 73 11;
#X msg 247 72 13, f 10;
#X connect 0 0 6 0;
#X connect 1 0 7 0;
#X connect 2 0 8 0;
#X connect 3 0 10 0;
#X connect 4 0 9 0;
#X connect 6 0 5 0;
#X connect 7 0 5 0;
#X connect 8 0 5 0;
#X connect 9 0 5 0;
#X connect 10 0 5 0;
#X restore 292 146 pd B;
#X obj 294 108 t b b b b b;
#X obj 184 109 t b b b b b;
#X obj 83 106 t b b b b b;
#X msg 231 506 0;
#X obj 110 413 t b f b;
#N canvas 680 267 450 300 P 0;
#X obj 37 28 inlet~;
#X obj 38 121 *~ 0.5;
#X obj 36 163 outlet~;
#X obj 96 28 inlet~;
#X obj 95 163 outlet~;
#X obj 97 121 *~ -1;
#X obj 152 26 inlet~;
#X obj 153 119 *~ 0.5;
#X obj 151 161 outlet~;
#X obj 209 24 inlet~;
#X obj 208 159 outlet~;
#X obj 265 22 inlet~;
#X obj 264 157 outlet~;
#X obj 210 117 *~ 0.25;
#X obj 266 115 *~ 0.25;
#X connect 0 0 1 0;
#X connect 1 0 2 0;
#X connect 3 0 5 0;
#X connect 5 0 4 0;
#X connect 6 0 7 0;
#X connect 7 0 8 0;
#X connect 9 0 13 0;
#X connect 11 0 14 0;
#X connect 13 0 10 0;
#X connect 14 0 12 0;
#X restore 66 864 pd P;
#X obj 342 776 * 1000;
#X obj 276 783 sig~;
#X obj 276 758 * 1000;
#X obj 205 776 sig~;
#X obj 205 748 * 1000;
#X obj 154 756 sig~;
#X obj 154 731 * 1000;
#X obj 97 731 sig~;
#X obj 97 704 * 1000;
#X text 40 10 The sound \, the azimuth and the elevation angles are
received.;
#X text 28 942 Five different delays are computed;
#X connect 2 0 6 0;
#X connect 2 0 7 0;
#X connect 3 0 13 1;
#X connect 4 0 21 0;
#X connect 5 0 8 1;
#X connect 6 0 42 0;
#X connect 6 0 41 0;
#X connect 6 0 40 0;
#X connect 6 0 14 0;
#X connect 7 0 5 0;
#X connect 8 0 9 0;
#X connect 9 0 12 1;
#X connect 10 0 9 1;
#X connect 11 0 10 0;
#X connect 12 0 44 0;
#X connect 13 0 11 1;
#X connect 14 0 13 0;
#X connect 15 0 16 0;
#X connect 15 0 30 0;
#X connect 16 0 15 1;
#X connect 17 0 29 0;
#X connect 18 0 15 0;
#X connect 19 0 54 0;
#X connect 20 0 52 0;
#X connect 21 0 22 0;
#X connect 22 0 45 0;
#X connect 22 1 45 1;
#X connect 22 2 45 2;
#X connect 22 3 45 3;
#X connect 22 4 45 4;
#X connect 23 0 50 0;
#X connect 24 0 46 0;
#X connect 25 0 22 5;
#X connect 26 0 48 0;
#X connect 28 0 19 0;
#X connect 28 0 20 0;
#X connect 28 0 23 0;
#X connect 28 0 26 0;
#X connect 28 0 24 0;
#X connect 29 0 15 0;
#X connect 30 0 31 0;
#X connect 31 0 32 0;
#X connect 31 1 36 0;
#X connect 31 2 33 0;
#X connect 31 3 34 0;
#X connect 31 4 35 0;
#X connect 32 0 24 1;
#X connect 33 0 20 1;
#X connect 34 0 23 1;
#X connect 35 0 26 1;
#X connect 36 0 19 1;
#X connect 37 0 8 0;
#X connect 38 0 11 0;
#X connect 39 0 12 0;
#X connect 40 0 39 0;
#X connect 40 1 39 1;
#X connect 40 2 39 2;
#X connect 40 3 39 3;
#X connect 40 4 39 4;
#X connect 41 0 38 0;
#X connect 41 1 38 1;
#X connect 41 2 38 2;
#X connect 41 3 38 3;
#X connect 41 4 38 4;
#X connect 42 0 37 0;
#X connect 42 1 37 1;
#X connect 42 2 37 2;
#X connect 42 3 37 3;
#X connect 42 4 37 4;
#X connect 43 0 32 0;
#X connect 43 0 36 0;
#X connect 43 0 33 0;
#X connect 43 0 34 0;
#X connect 43 0 35 0;
#X connect 44 0 43 0;
#X connect 44 1 28 0;
#X connect 44 2 18 0;
#X connect 45 0 27 0;
#X connect 45 1 27 0;
#X connect 45 2 27 0;
#X connect 45 3 27 0;
#X connect 45 4 27 0;
#X connect 46 0 25 0;
#X connect 47 0 22 4;
#X connect 48 0 47 0;
#X connect 49 0 22 3;
#X connect 50 0 49 0;
#X connect 51 0 22 2;
#X connect 52 0 51 0;
#X connect 53 0 22 1;
#X connect 54 0 53 0;
