#N canvas 0 50 450 300 10;
#X obj 16 296 cnv 15 270 250 empty empty Computing_the_delays_in_samples
20 12 0 14 -233017 -66577 0;
#X obj 17 110 cnv 15 270 170 empty empty Computing_the_delays_in_samples
20 12 0 14 -233017 -66577 0;
#X obj 114 2 inlet;
#X obj 188 2 inlet;
#X obj 35 2 inlet~;
#X obj 107 168 cos, f 6;
#X obj 86 23 bng 15 250 50 0 empty empty empty 17 7 0 10 -262144 -1
-1;
#X obj 107 140 / 2;
#X obj 46 196 *;
#X obj 83 226 *;
#X obj 140 205 sin, f 5;
#X obj 147 51 t b b b b b;
#N canvas 719 285 450 300 D 0;
#X msg 149 74 0.5;
#X obj 66 32 inlet;
#X obj 113 31 inlet;
#X obj 159 30 inlet;
#X obj 254 29 inlet;
#X obj 206 29 inlet;
#X obj 92 107 outlet;
#X obj 36 107 outlet;
#X obj 260 107 outlet;
#X obj 147 107 outlet;
#X obj 203 107 outlet, f 7;
#X msg 70 74 1;
#X msg 112 74 0.5;
#X msg 194 73 0.5;
#X msg 247 72 0.5, f 11;
#X connect 0 0 9 0;
#X connect 1 0 11 0;
#X connect 2 0 12 0;
#X connect 3 0 0 0;
#X connect 4 0 14 0;
#X connect 5 0 13 0;
#X connect 11 0 7 0;
#X connect 12 0 6 0;
#X connect 13 0 10 0;
#X connect 14 0 8 0;
#X restore 156 83 pd D;
#X obj 171 181 *;
#X obj 163 247 +;
#X obj 269 51 t b b b b b;
#N canvas 719 285 450 300 B 0;
#X obj 66 32 inlet;
#X obj 113 31 inlet;
#X obj 159 30 inlet;
#X obj 254 29 inlet;
#X obj 206 29 inlet;
#X obj 92 107 outlet;
#X obj 36 107 outlet;
#X obj 260 107 outlet;
#X obj 147 107 outlet;
#X obj 203 107 outlet, f 7;
#X msg 70 74 2;
#X msg 112 74 4;
#X msg 149 74 7;
#X msg 194 73 11;
#X msg 247 72 13, f 10;
#X connect 0 0 10 0;
#X connect 1 0 11 0;
#X connect 2 0 12 0;
#X connect 3 0 14 0;
#X connect 4 0 13 0;
#X connect 10 0 6 0;
#X connect 11 0 5 0;
#X connect 12 0 8 0;
#X connect 13 0 9 0;
#X connect 14 0 7 0;
#X restore 254 83 pd B;
#N canvas 680 267 450 300 P 0;
#X obj 37 28 inlet~;
#X obj 38 121 *~ 0.5;
#X obj 36 163 outlet~;
#X obj 96 28 inlet~;
#X obj 95 163 outlet~;
#X obj 97 121 *~ -1;
#X obj 152 26 inlet~;
#X obj 153 119 *~ 0.5;
#X obj 151 161 outlet~;
#X obj 209 24 inlet~;
#X obj 208 159 outlet~;
#X obj 265 22 inlet~;
#X obj 264 157 outlet~;
#X obj 210 117 *~ 0.25;
#X obj 266 115 *~ 0.25;
#X connect 0 0 1 0;
#X connect 1 0 2 0;
#X connect 3 0 5 0;
#X connect 5 0 4 0;
#X connect 6 0 7 0;
#X connect 7 0 8 0;
#X connect 9 0 13 0;
#X connect 11 0 14 0;
#X connect 13 0 10 0;
#X connect 14 0 12 0;
#X restore 363 633 pd P;
#N canvas 680 267 450 300 A 0;
#X obj 66 32 inlet;
#X obj 113 31 inlet;
#X obj 159 30 inlet;
#X obj 254 29 inlet;
#X obj 206 29 inlet;
#X obj 92 107 outlet;
#X obj 36 107 outlet;
#X obj 260 107 outlet;
#X obj 147 107 outlet;
#X obj 203 107 outlet;
#X msg 70 74 1;
#X msg 112 74 5;
#X msg 149 74 5;
#X msg 194 73 5;
#X msg 247 72 5, f 10;
#X connect 0 0 10 0;
#X connect 1 0 11 0;
#X connect 2 0 12 0;
#X connect 3 0 14 0;
#X connect 4 0 13 0;
#X connect 10 0 6 0;
#X connect 11 0 5 0;
#X connect 12 0 8 0;
#X connect 13 0 9 0;
#X connect 14 0 7 0;
#X restore 31 69 pd A;
#X obj 206 157 -;
#X msg 205 131 90;
#X obj 446 312 f;
#X obj 479 312 + 1;
#X obj 414 290 loadbang;
#X msg 494 295 bang;
#X obj 394 447 spigot;
#X obj 352 535 sig~;
#X obj 451 472 spigot;
#X obj 427 509 i;
#X obj 427 538 sig~;
#N canvas 0 50 550 318 delay-writer 0;
#X obj 22 27 inlet~;
#X obj 22 159 outlet~;
#X obj 116 113 delwrite~ \$0-delline2pm 40;
#X obj 151 145 delwrite~ \$0-delline3pm 40;
#X obj 215 173 delwrite~ \$0-delline4pm 40;
#X obj 257 202 delwrite~ \$0-delline5pm 40;
#X obj 52 87 delwrite~ \$0-delline1pm 2000;
#X connect 0 0 1 0;
#X connect 0 0 2 0;
#X connect 0 0 3 0;
#X connect 0 0 4 0;
#X connect 0 0 5 0;
#X connect 0 0 6 0;
#X restore 41 371 pd delay-writer;
#N canvas 33 53 693 322 delay-reader 0;
#X obj 31 197 outlet~;
#X obj 168 200 outlet~;
#X obj 31 145 inlet~;
#X obj 169 148 inlet~;
#X obj 294 197 outlet~;
#X obj 295 145 inlet~;
#X obj 423 196 outlet~;
#X obj 424 144 inlet~;
#X obj 555 197 outlet~;
#X obj 556 145 inlet~;
#X obj -50 64 inlet~;
#X text -51 86 dummy;
#X text -51 100 (to force execution order !);
#X obj 169 174 vd~ \$0-delline2pm;
#X obj 295 171 vd~ \$0-delline3pm;
#X obj 424 170 vd~ \$0-delline4pm;
#X obj 556 171 vd~ \$0-delline5pm;
#X obj 31 171 vd~ \$0-delline1pm;
#X connect 2 0 17 0;
#X connect 3 0 13 0;
#X connect 5 0 14 0;
#X connect 7 0 15 0;
#X connect 9 0 16 0;
#X connect 13 0 1 0;
#X connect 14 0 4 0;
#X connect 15 0 6 0;
#X connect 16 0 8 0;
#X connect 17 0 0 0;
#X restore 355 603 pd delay-reader;
#X obj 502 491 spigot;
#X obj 502 519 i;
#X obj 495 584 sig~;
#X obj 639 516 spigot;
#X obj 639 544 i;
#X obj 642 635 sig~;
#X floatatom 630 672 5 0 0 0 - - -, f 5;
#X floatatom 520 547 5 0 0 0 - - -, f 5;
#X floatatom 457 567 10 0 0 0 - - -, f 10;
#X floatatom 374 574 10 0 0 0 - - -, f 10;
#X obj 678 487 == 0;
#X obj 573 502 spigot;
#X obj 573 530 i;
#X obj 571 638 sig~;
#X floatatom 559 675 5 0 0 0 - - -, f 5;
#X obj 382 681 outlet~;
#X obj 29 48 t b b b b b;
#X obj 352 502 line;
#X msg 352 477 \$1 50;
#X obj 468 681 outlet;
#X obj 324 318 / 44100;
#X floatatom 546 354 5 0 0 0 - - -, f 5;
#X msg 410 305 0;
#X floatatom 426 348 5 0 0 0 - - -, f 5;
#X obj 275 282 t f b;
#X obj 457 341 mod 5;
#X obj 433 411 == 1;
#X obj 490 448 == 2;
#X obj 541 463 == 3;
#X obj 612 474 == 4;
#X connect 2 0 6 0;
#X connect 2 0 7 0;
#X connect 3 0 20 0;
#X connect 3 0 19 1;
#X connect 4 0 30 0;
#X connect 5 0 8 1;
#X connect 6 0 11 0;
#X connect 6 0 15 0;
#X connect 6 0 48 0;
#X connect 7 0 5 0;
#X connect 8 0 9 0;
#X connect 9 0 14 1;
#X connect 10 0 9 1;
#X connect 11 0 12 0;
#X connect 11 1 12 1;
#X connect 11 2 12 2;
#X connect 11 3 12 3;
#X connect 11 4 12 4;
#X connect 12 0 13 0;
#X connect 12 1 13 0;
#X connect 12 2 13 0;
#X connect 12 3 13 0;
#X connect 12 4 13 0;
#X connect 13 0 10 0;
#X connect 14 0 56 0;
#X connect 15 0 16 0;
#X connect 15 1 16 1;
#X connect 15 2 16 2;
#X connect 15 3 16 3;
#X connect 15 4 16 4;
#X connect 16 0 14 0;
#X connect 16 1 14 0;
#X connect 16 2 14 0;
#X connect 16 3 14 0;
#X connect 16 4 14 0;
#X connect 17 0 47 0;
#X connect 17 1 47 0;
#X connect 17 2 47 0;
#X connect 17 3 47 0;
#X connect 17 4 47 0;
#X connect 18 0 8 0;
#X connect 18 1 8 0;
#X connect 18 2 8 0;
#X connect 18 3 8 0;
#X connect 18 4 8 0;
#X connect 19 0 13 1;
#X connect 20 0 19 0;
#X connect 21 0 22 0;
#X connect 21 0 55 0;
#X connect 21 0 57 0;
#X connect 22 0 21 1;
#X connect 23 0 54 0;
#X connect 24 0 21 0;
#X connect 25 0 41 0;
#X connect 25 0 50 0;
#X connect 26 0 31 1;
#X connect 27 0 28 0;
#X connect 27 0 40 0;
#X connect 28 0 29 0;
#X connect 29 0 31 2;
#X connect 30 0 31 0;
#X connect 31 0 17 0;
#X connect 32 0 33 0;
#X connect 33 0 39 0;
#X connect 33 0 34 0;
#X connect 34 0 31 3;
#X connect 35 0 36 0;
#X connect 36 0 38 0;
#X connect 36 0 37 0;
#X connect 37 0 31 5;
#X connect 42 0 35 1;
#X connect 43 0 44 0;
#X connect 44 0 46 0;
#X connect 44 0 45 0;
#X connect 45 0 31 4;
#X connect 48 0 18 0;
#X connect 48 1 18 1;
#X connect 48 2 18 2;
#X connect 48 3 18 3;
#X connect 48 4 18 4;
#X connect 49 0 26 0;
#X connect 49 0 51 0;
#X connect 50 0 49 0;
#X connect 52 0 25 0;
#X connect 52 0 27 0;
#X connect 52 0 32 0;
#X connect 52 0 43 0;
#X connect 52 0 35 0;
#X connect 54 0 21 0;
#X connect 56 0 52 0;
#X connect 56 1 24 0;
#X connect 57 0 42 0;
#X connect 57 0 53 0;
#X connect 57 0 58 0;
#X connect 57 0 59 0;
#X connect 57 0 60 0;
#X connect 57 0 61 0;
#X connect 58 0 25 1;
#X connect 59 0 27 1;
#X connect 60 0 32 1;
#X connect 61 0 43 1;
