#N canvas 127 71 1151 615 10;
#X obj 3 14 cnv 15 400 230 empty empty empty 20 12 0 14 -237165 -66577
0;
#X obj 414 14 cnv 15 500 230 empty empty Sound_item_1 20 12 0 14 -233017
-66577 0;
#X obj 461 192 dac~;
#X obj 420 43 r onOff1;
#X obj 472 69 r distance1;
#X obj 525 130 r azimuth1;
#X text 547 65 Distance of the sound. The sound master volume will
be computer according to them and also to the GPS coordinates given
to the sound \, which are the second and third arguments to [sounditem]
(yes \, that is the distance).;
#X text 595 131 Azimuth angle between user and sound (radians);
#X text 479 43 Turn or off the sound item;
#X text 17 154 [sounditem] has as arguments \; - the name of the file
to load \; And receives as inlets \; - onoff: turn on or off the dsp
\; - distance: user gps coordinates \; - azimuth: angle between user
and sound (radians);
#X obj 19 131 sounditem filename;
#X text 17 21 [soundengineMAIN] will be the main patch dealing with
sound playback \; It will receive for each sound \, if it is on or
off \, the distance and the azimuth angle between the user \; It will
contain several [sounditem]s \, which are objects containing and processing
each different sound file.;
#X obj 420 151 sounditem sexy.wav;
#X obj 4 254 cnv 15 180 200 empty empty Sound_item_2 20 12 0 14 -233017
-66577 0;
#X obj 10 283 r onOff2;
#X obj 62 309 r distance2;
#X obj 115 370 r azimuth2;
#X obj 194 254 cnv 15 180 200 empty empty Sound_item_3 20 12 0 14 -233017
-66577 0;
#X obj 200 283 r onOff3;
#X obj 252 309 r distance3;
#X obj 305 370 r azimuth3;
#X obj 384 254 cnv 15 180 200 empty empty Sound_item_4 20 12 0 14 -233017
-66577 0;
#X obj 390 283 r onOff4;
#X obj 442 309 r distance4;
#X obj 495 370 r azimuth4;
#X obj 574 254 cnv 15 180 200 empty empty Sound_item_5 20 12 0 14 -233017
-66577 0;
#X obj 580 283 r onOff5;
#X obj 632 309 r distance5;
#X obj 685 370 r azimuth5;
#X obj 319 490 dac~;
#X obj 200 391 sounditem a.wav;
#X obj 390 391 sounditem piano-a.wav;
#X obj 10 391 sounditem Elvis.wav;
#X obj 580 391 sounditem heidi.wav;
#X connect 3 0 12 0;
#X connect 4 0 12 1;
#X connect 5 0 12 2;
#X connect 12 0 2 0;
#X connect 12 1 2 1;
#X connect 14 0 32 0;
#X connect 15 0 32 1;
#X connect 16 0 32 2;
#X connect 18 0 30 0;
#X connect 19 0 30 1;
#X connect 20 0 30 2;
#X connect 22 0 31 0;
#X connect 23 0 31 1;
#X connect 24 0 31 2;
#X connect 26 0 33 0;
#X connect 27 0 33 1;
#X connect 28 0 33 2;
#X connect 30 0 29 0;
#X connect 30 1 29 1;
#X connect 31 0 29 0;
#X connect 31 1 29 1;
#X connect 32 0 29 0;
#X connect 32 1 29 0;
#X connect 33 0 29 0;
#X connect 33 1 29 1;
