#N canvas 16 23 1149 577 10;
#X obj 2 22 osc~ 440;
#X obj 2 201 *~;
#X obj 93 -45 tgl 15 0 empty empty empty 17 7 0 10 -262144 -1 -1 0
1;
#X obj 17 141 line;
#X msg 17 121 \$1 20;
#X obj 2 161 *~;
#X obj 2 42 *~ 0.3;
#X obj 17 101 / 127;
#X obj 33 261 *~;
#X obj 2 261 *~;
#X floatatom 17 84 5 0 0 0 - - -, f 5;
#X obj 66 225 r gainR;
#X obj 17 225 r gainL;
#X obj 171 174 IIDgains;
#X floatatom 171 157 5 0 0 0 - - -, f 5;
#X floatatom 171 245 5 0 0 0 - - -, f 5;
#X floatatom 216 224 5 0 0 0 - - -, f 5;
#X obj 171 261 s gainL;
#X obj 216 240 s gainR;
#X floatatom 171 122 5 0 0 0 - - -, f 5;
#X obj 171 138 * 45;
#X text 251 119 value from -1 to 1;
#X text 250 138 scale value to angle of speakers (degrees);
#X obj 171 61 / 127;
#X obj 171 81 * 2;
#X obj 171 101 - 1;
#X text 251 41 angle of sound (0-127);
#X text -1 5 create sound;
#X text 171 18 compute gains;
#X text 171 281 IIDgains implements is:;
#N canvas 0 22 561 399 IIDgainsimplements 0;
#X obj 258 124 f 3.14159;
#X text 325 125 pi;
#X obj 258 84 loadbang;
#X obj 227 240 expr (cos($f1)+sin($f1))*(sqrt(2)/2);
#X obj 153 208 expr (cos($f1)-sin($f1))*(sqrt(2)/2);
#N canvas 236 434 450 300 init_interpolation_time 0;
#X obj 98 82 f \$1;
#X obj 98 52 loadbang;
#X obj 98 112 sel 0;
#X obj 98 190 outlet;
#X msg 98 144 200;
#X connect 0 0 2 0;
#X connect 1 0 0 0;
#X connect 2 0 4 0;
#X connect 2 1 3 0;
#X connect 4 0 3 0;
#X restore 210 292 pd init_interpolation_time;
#X text 262 261 right;
#X text 188 227 left;
#X floatatom 153 229 5 0 0 0 - - -, f 5;
#X floatatom 227 262 5 0 0 0 - - -, f 5;
#X floatatom 153 167 10 0 0 0 - - -, f 10;
#X msg 258 104 bang;
#X text 217 166 angle in rads;
#X obj 153 145 expr ($f1*$f2)/180;
#X text 266 146 convert degrees to radians;
#X text 453 241 Compute gains;
#X obj 153 39 inlet;
#X text 190 40 -45 to 45;
#X connect 0 0 13 1;
#X connect 2 0 11 0;
#X connect 3 0 9 0;
#X connect 4 0 8 0;
#X connect 10 0 3 0;
#X connect 10 0 4 0;
#X connect 11 0 0 0;
#X connect 13 0 10 0;
#X connect 16 0 13 0;
#X restore 313 281 pd IIDgainsimplements;
#X obj 237 168 loadbang;
#X msg 237 187 0.7;
#X obj 282 226 print gainR;
#X obj 93 -64 inlet onOff;
#X obj 283 -64 inlet theta;
#X obj 93 -28 s \$0-onOff;
#X obj 283 -42 s \$0-theta;
#X obj 171 42 r \$0-theta;
#X obj 17 64 r \$0-gainmaster;
#X obj 17 180 r \$0-onOff;
#X obj 2 301 outlet~ chL;
#X obj 33 281 outlet~ chL;
#X obj 602 57 soundfiler;
#X floatatom 602 79 5 0 0 0 - - -, f 5;
#X obj 672 -4 table array;
#X msg 602 37 read -resize \$1 array;
#X text 594 -55 Idea: let \$1 be the sound file that we want to load
for this sound item and load it.;
#X obj 602 -4 symbol \$1;
#X obj 602 -25 bng 15 250 50 0 empty empty empty 17 7 0 10 -262144
-1 -1;
#X symbolatom 602 18 10 0 0 0 - - -, f 10;
#X obj 607 388 f \$2;
#X obj 607 369 bng 15 250 50 0 empty empty empty 17 7 0 10 -262144
-1 -1;
#X obj 647 369 bng 15 250 50 0 empty empty empty 17 7 0 10 -262144
-1 -1;
#X obj 647 388 f \$3;
#X floatatom 607 410 5 0 0 0 - - -, f 5;
#X floatatom 647 410 5 0 0 0 - - -, f 5;
#X obj 173 -64 inlet usergps;
#X obj 173 -42 s \$0-usergps;
#X msg 783 34 open \$1;
#X obj 783 54 readsf~;
#X obj 783 -6 symbol \$1;
#X obj 783 -27 bng 15 250 50 0 empty empty empty 17 7 0 10 -262144
-1 -1;
#X symbolatom 783 16 10 0 0 0 - - -, f 10;
#X floatatom 602 185 5 0 0 0 - - -, f 5;
#X obj 602 204 phasor~;
#X obj 602 246 *~;
#X obj 617 225 r sampleSize;
#X obj 612 98 s sampleSize;
#X obj 602 268 tabread4~ array;
#X obj 591 297 dac~;
#X text 602 341 GPS coordinates of this sound;
#X obj 602 120 t b f;
#X obj 602 142 f 44100;
#X obj 602 162 /;
#X obj 783 76 dac~;
#X connect 0 0 6 0;
#X connect 1 0 9 0;
#X connect 1 0 8 0;
#X connect 2 0 36 0;
#X connect 3 0 5 1;
#X connect 4 0 3 0;
#X connect 5 0 1 0;
#X connect 6 0 5 0;
#X connect 7 0 4 0;
#X connect 8 0 42 0;
#X connect 9 0 41 0;
#X connect 10 0 7 0;
#X connect 11 0 8 1;
#X connect 12 0 9 1;
#X connect 13 0 15 0;
#X connect 13 1 16 0;
#X connect 13 1 33 0;
#X connect 14 0 13 0;
#X connect 15 0 17 0;
#X connect 16 0 18 0;
#X connect 19 0 20 0;
#X connect 20 0 14 0;
#X connect 23 0 24 0;
#X connect 24 0 25 0;
#X connect 25 0 19 0;
#X connect 31 0 32 0;
#X connect 32 0 16 0;
#X connect 32 0 15 0;
#X connect 34 0 2 0;
#X connect 35 0 37 0;
#X connect 38 0 23 0;
#X connect 39 0 10 0;
#X connect 40 0 1 1;
#X connect 43 0 44 0;
#X connect 44 0 68 0;
#X connect 44 0 72 0;
#X connect 46 0 43 0;
#X connect 48 0 50 0;
#X connect 49 0 48 0;
#X connect 50 0 46 0;
#X connect 51 0 55 0;
#X connect 52 0 51 0;
#X connect 53 0 54 0;
#X connect 54 0 56 0;
#X connect 57 0 58 0;
#X connect 59 0 60 0;
#X connect 60 0 75 0;
#X connect 60 1 75 1;
#X connect 61 0 63 0;
#X connect 62 0 61 0;
#X connect 63 0 59 0;
#X connect 64 0 65 0;
#X connect 65 0 66 0;
#X connect 66 0 69 0;
#X connect 67 0 66 1;
#X connect 69 0 70 0;
#X connect 69 0 70 1;
#X connect 72 0 73 0;
#X connect 72 1 74 1;
#X connect 73 0 74 0;
#X connect 74 0 64 0;
