#N canvas 146 23 1149 577 10;
#X obj 93 -45 tgl 15 0 empty empty empty 17 7 0 10 -262144 -1 -1 0
1;
#X obj 93 -64 inlet onOff;
#X obj 283 -64 inlet theta;
#X obj 93 -28 s \$0-onOff;
#X obj 283 -42 s \$0-theta;
#X obj 371 -10 f \$2;
#X obj 371 -29 bng 15 250 50 0 empty empty empty 17 7 0 10 -262144
-1 -1;
#X obj 411 -29 bng 15 250 50 0 empty empty empty 17 7 0 10 -262144
-1 -1;
#X obj 411 -10 f \$3;
#X floatatom 371 12 5 0 0 0 - - -, f 5;
#X floatatom 411 12 5 0 0 0 - - -, f 5;
#X obj 173 -64 inlet usergps;
#X obj 173 -42 s \$0-usergps;
#X text 366 -57 GPS coordinates of this sound;
#X obj 8 46 cnv 15 300 400 empty empty read_sound_file 20 12 0 14 -233017
-66577 0;
#X obj 20 185 soundfiler;
#X floatatom 20 207 10 0 0 0 - - -, f 10;
#X obj 20 104 symbol \$1;
#X obj 20 83 bng 15 250 50 0 empty empty empty 17 7 0 10 -262144 -1
-1;
#X symbolatom 20 126 10 0 0 0 - - -, f 10;
#X msg 191 142 open \$1;
#X obj 191 162 readsf~;
#X obj 191 102 symbol \$1;
#X obj 191 81 bng 15 250 50 0 empty empty empty 17 7 0 10 -262144 -1
-1;
#X symbolatom 191 124 10 0 0 0 - - -, f 10;
#X floatatom 20 313 5 0 0 0 - - -, f 5;
#X obj 20 332 phasor~;
#X obj 20 374 *~;
#X obj 35 353 r sampleSize;
#X obj 30 226 s sampleSize;
#X obj 9 425 dac~;
#X obj 20 248 t b f;
#X obj 20 270 f 44100;
#X obj 20 290 /;
#X obj 191 204 dac~;
#X obj 90 104 table \$0-array;
#X msg 20 165 read -resize \$1 \$2-array;
#X obj 20 145 pack \$1 \$0;
#X obj 20 396 tabread4~ \$0-array;
#X msg 60 313 0;
#X msg 265 142 start;
#X obj 320 46 cnv 15 200 400 empty empty process_sound 20 12 0 14 -233017
-66577 0;
#X obj 325 82 r~ \$0-sound;
#N canvas 0 22 450 300 distance 0;
#X obj 52 44 inlet~;
#X obj 52 66 outlet~;
#X obj 209 44 inlet userGPS;
#X obj 109 44 inlet soundGPS;
#X obj 109 66 unpack;
#X obj 209 66 unpack;
#X connect 0 0 1 0;
#X connect 2 0 5 0;
#X connect 3 0 4 0;
#X restore 325 228 pd distance;
#N canvas 0 22 450 300 headshadow 0;
#X obj 130 73 inlet~;
#X obj 130 95 outlet~;
#X obj 202 71 inlet theta;
#X obj 180 95 outlet~;
#X connect 0 0 1 0;
#X restore 325 270 pd headshadow;
#X obj 356 133 f \$2;
#X obj 371 106 bng 15 250 50 0 empty empty empty 17 7 0 10 -262144
-1 -1;
#X obj 391 133 f \$3;
#X floatatom 356 155 5 0 0 0 - - -, f 5;
#X floatatom 391 155 5 0 0 0 - - -, f 5;
#X obj 356 177 pack;
#X text 393 104 sound GPS;
#X obj 388 207 r \$0-usergps;
#X obj 400 248 r \$0-theta;
#N canvas 0 22 450 300 ITD 0;
#X obj 113 51 inlet~;
#X obj 113 73 outlet~;
#X obj 173 51 inlet~;
#X obj 173 73 outlet~;
#X connect 0 0 1 0;
#X connect 2 0 3 0;
#X restore 325 292 pd ITD;
#N canvas 0 22 450 300 pinnaecho 0;
#X obj 156 62 inlet~;
#X obj 156 84 outlet~;
#X obj 206 62 inlet~;
#X obj 206 84 outlet~;
#X connect 0 0 1 0;
#X connect 2 0 3 0;
#X restore 325 314 pd pinnaecho;
#X obj 325 356 s~ \$0-binauralsoundL;
#X obj 394 336 s~ \$0-binauralsoundR;
#X obj 531 46 cnv 15 200 250 empty empty output_sound 20 12 0 14 -233017
-66577 0;
#X obj 580 171 dac~;
#X obj 549 84 r~ \$0-sound;
#N canvas 0 22 450 300 externalization 0;
#X obj 82 44 inlet~;
#X obj 82 66 outlet~;
#X connect 0 0 1 0;
#X restore 549 104 pd externalization;
#X obj 580 124 r~ \$0-binauralsoundL;
#X obj 601 145 r~ \$0-binauralsoundR;
#X connect 0 0 3 0;
#X connect 1 0 0 0;
#X connect 2 0 4 0;
#X connect 5 0 9 0;
#X connect 6 0 5 0;
#X connect 7 0 8 0;
#X connect 8 0 10 0;
#X connect 11 0 12 0;
#X connect 15 0 16 0;
#X connect 16 0 29 0;
#X connect 16 0 31 0;
#X connect 17 0 19 0;
#X connect 18 0 17 0;
#X connect 19 0 37 0;
#X connect 20 0 21 0;
#X connect 21 0 34 0;
#X connect 21 0 34 1;
#X connect 22 0 24 0;
#X connect 23 0 22 0;
#X connect 24 0 20 0;
#X connect 25 0 26 0;
#X connect 26 0 27 0;
#X connect 27 0 38 0;
#X connect 28 0 27 1;
#X connect 31 0 32 0;
#X connect 31 1 33 1;
#X connect 32 0 33 0;
#X connect 33 0 25 0;
#X connect 36 0 15 0;
#X connect 37 0 36 0;
#X connect 38 0 30 0;
#X connect 38 0 30 1;
#X connect 39 0 25 0;
#X connect 40 0 21 0;
#X connect 42 0 43 0;
#X connect 43 0 44 0;
#X connect 44 0 54 0;
#X connect 44 1 54 1;
#X connect 45 0 48 0;
#X connect 46 0 45 0;
#X connect 46 0 47 0;
#X connect 47 0 49 0;
#X connect 48 0 50 0;
#X connect 49 0 50 1;
#X connect 50 0 43 1;
#X connect 52 0 43 2;
#X connect 53 0 44 1;
#X connect 54 0 55 0;
#X connect 54 1 55 1;
#X connect 55 0 56 0;
#X connect 55 1 57 0;
#X connect 60 0 61 0;
#X connect 61 0 59 0;
#X connect 61 0 59 1;
#X connect 62 0 59 0;
#X connect 63 0 59 1;
